<svg width="810" height="415" viewBox="0 0 810 415" fill="none" xmlns="http://www.w3.org/2000/svg">
<g opacity="0.3">
<path d="M216.766 244.978C231.578 249.758 240.167 256.055 236.806 266.35C225.355 301.098 170.087 332.766 189.879 368.939C200.086 387.508 231.329 402.492 273.651 412.879C473.808 461.829 645.833 425.887 695.748 405.204C746.907 384.015 710.561 350.784 677.201 329.825C636.124 303.994 585.587 278.806 574.26 248.379C562.31 216.251 520.362 143.952 477.667 113.984C447.544 92.8414 377.713 64.9881 312.985 64.9881C248.258 64.9881 190.003 91.6924 144.445 108.653C98.8873 125.613 -116.704 71.3769 -135.127 94.3122C-159.897 125.153 -84.8387 157.143 -31.5631 177.321C22.4593 197.774 83.8258 215.378 149.673 230.362C174.071 235.877 199.588 239.416 216.766 244.978Z" stroke="#6A5A59" stroke-width="0.5"/>
<path d="M704.961 409.984C759.482 387.417 720.645 351.98 685.17 329.642C641.479 302.11 587.456 275.268 575.507 242.818C562.81 208.576 532.065 138.299 486.506 106.355C454.392 83.7876 380.827 57.0374 311.743 57.0374C250.003 57.0374 194.238 80.846 149.302 96.2895C102.997 112.193 -91.6827 66.2299 -113.341 88.1081C-143.216 118.397 -84.0897 150.617 -40.6477 172.587C2.91872 194.65 56.4433 213.954 116.565 230.592C138.846 236.751 162.496 241.072 179.176 247.093C193.491 252.195 202.453 258.584 201.582 268.465C200.213 283.357 193.366 297.606 188.014 311.67C183.408 323.667 180.048 335.571 182.91 347.797C184.28 353.726 187.641 359.747 192.993 366.044C207.681 383.142 240.294 397.529 284.109 408.284C349.21 424.187 411.697 432.874 468.955 436.137C576.253 442.296 666.374 425.979 704.961 409.984Z" stroke="#6A5A59" stroke-width="0.5"/>
<path d="M714.297 414.766C772.178 390.819 730.976 353.176 693.26 329.459C646.831 300.227 589.572 271.73 576.751 237.258C563.308 200.901 543.765 132.601 495.469 98.6806C461.362 74.7341 383.938 49.041 310.747 49.041C251.87 49.041 198.594 69.9999 154.405 83.8806C107.229 98.7266 -66.6632 60.9912 -91.1849 81.8583C-126.287 111.596 -82.845 144 -49.3611 167.762C-16.0017 191.387 29.3075 212.438 83.7033 230.731C103.744 237.488 125.527 242.59 141.833 249.116C155.65 254.586 165.11 261.113 166.729 270.535C169.218 285.059 168.72 298.802 169.965 312.223C170.961 323.576 173.077 334.653 180.296 346.097C183.782 351.521 189.259 357.128 196.478 363.058C215.274 378.639 249.754 392.474 294.814 403.597C358.048 419.178 419.29 429.52 477.046 435.035C577.374 444.687 670.357 432.967 714.297 414.766Z" stroke="#6A5A59" stroke-width="0.5"/>
<path d="M723.633 419.547C784.875 394.175 741.309 354.372 701.477 329.23C652.309 298.297 591.689 268.1 578.246 231.651C563.931 193.181 555.716 126.902 504.681 91.0056C468.583 65.6802 387.425 41.0442 309.876 41.0442C253.987 41.0442 202.952 59.1076 159.51 71.4715C111.462 85.2144 -41.6427 55.7983 -69.1519 75.6082C-109.606 104.794 -81.7239 137.336 -58.198 162.983C-35.17 188.171 2.04818 210.968 50.7181 230.962C68.6426 238.316 88.4342 244.199 104.367 251.185C117.686 257.023 127.644 263.641 131.627 272.604C137.976 286.761 143.826 299.998 151.668 312.821C158.265 323.485 165.734 333.78 177.434 344.444C182.911 349.408 190.504 354.509 199.591 360.163C222.37 374.227 258.717 387.511 305.146 399.001C366.637 414.169 426.51 426.073 484.889 434.025C578.495 446.665 674.341 439.954 723.633 419.547Z" stroke="#6A5A59" stroke-width="0.5"/>
<path d="M732.967 424.325C797.57 397.575 751.639 355.565 709.566 329.045C657.784 296.365 593.804 264.559 579.489 226.088C564.427 185.503 567.415 121.201 513.517 83.3742C475.427 56.624 390.411 33.0911 308.63 33.0452C255.728 33.0452 206.809 48.1669 164.363 59.106C115.319 71.6997 -16.9982 50.5569 -47.3702 69.4476C-93.4262 98.0823 -80.7297 130.716 -67.2863 158.247C-54.3409 184.906 -25.338 209.496 17.6061 231.144C33.29 239.096 51.2145 245.76 66.7739 253.206C79.5949 259.365 90.0508 266.122 96.5235 274.671C106.979 288.506 118.805 301.145 133.368 313.371C145.318 323.391 158.388 332.905 174.694 342.695C182.163 347.2 191.872 351.842 202.95 357.128C229.464 369.721 268.051 382.407 315.725 394.266C375.473 409.065 433.977 422.303 492.978 432.828C579.738 448.364 678.198 446.985 732.967 424.325Z" stroke="#6A5A59" stroke-width="0.5"/>
<path d="M742.303 429.107C810.267 400.978 761.97 356.762 717.657 328.862C663.137 294.482 595.795 261.021 580.858 220.574C565.05 177.875 579.365 115.596 522.604 75.746C482.523 47.6168 393.771 25.1411 307.634 25.0951C257.72 25.0951 210.917 37.2752 169.466 46.7435C119.303 58.1882 7.77269 45.3646 -25.2133 63.2441C-76.9952 91.2813 -79.1113 124.053 -75.9994 153.469C-73.012 181.598 -52.349 207.98 -15.1308 231.375C-1.56301 239.879 14.3699 247.37 29.4315 255.322C41.7546 261.803 52.8329 268.697 61.5462 276.787C76.1098 290.254 93.7853 302.434 115.195 313.97C132.497 323.301 150.92 332.034 171.956 341.042C181.292 345.087 192.992 349.316 206.187 354.234C236.185 365.402 277.138 377.399 326.306 389.671C384.311 404.103 441.819 418.489 501.194 431.818C581.356 449.79 682.181 453.972 742.303 429.107Z" stroke="#6A5A59" stroke-width="0.5"/>
<path d="M751.515 433.842C822.839 404.334 772.178 357.958 725.748 328.68C668.49 292.599 597.912 257.484 582.103 215.014C565.424 170.201 591.066 109.944 531.566 68.1177C489.494 38.6096 396.884 17.1451 306.639 17.1451C259.587 17.1451 215.025 26.3376 174.57 34.3811C123.286 44.6307 32.4191 40.1264 -3.18093 57.0406C-60.8131 84.4344 -77.6174 117.436 -84.837 148.736C-91.6831 178.382 -79.4845 206.557 -48.1167 231.607C-36.6649 240.707 -22.5992 248.981 -8.03551 257.392C3.78967 264.24 15.4904 271.226 26.4442 278.856C45.2401 291.956 68.517 303.63 96.8974 314.569C119.552 323.256 143.451 331.254 169.093 339.389C180.421 342.974 194.113 346.789 209.423 351.293C242.783 361.129 286.349 372.39 336.762 385.076C393.025 399.14 449.91 414.538 509.161 430.763C583.473 451.078 686.165 460.96 751.515 433.842Z" stroke="#6A5A59" stroke-width="0.5"/>
<path d="M760.851 438.625C835.536 407.692 782.385 359.109 733.715 328.452C673.718 290.671 599.779 253.901 583.348 209.409C565.922 162.481 602.767 104.2 540.404 60.3979C496.464 29.4651 399.996 9.10363 305.394 9.10363C261.33 9.10363 218.759 15.2167 179.301 21.9272C126.772 30.8899 56.6921 34.7508 18.478 50.7458C-45.0045 77.4041 -76.3724 110.727 -93.9234 143.866C-110.479 175.029 -106.744 204.95 -81.2269 231.701C-71.8912 241.399 -59.6927 250.453 -45.6269 259.324C-34.1752 266.494 -21.852 273.619 -8.65763 280.835C14.3704 293.475 43.3732 304.827 78.5998 315.031C106.482 323.12 135.859 330.337 166.231 337.553C179.425 340.678 195.109 344.125 212.66 348.216C249.38 356.765 295.561 367.245 347.218 380.298C401.739 394.087 458.499 410.357 517.127 429.616C585.962 452.275 690.149 467.949 760.851 438.625Z" stroke="#6A5A59" stroke-width="0.5"/>
<path d="M163.368 335.94C239.921 349.729 381.2 372.572 525.094 428.509C589.075 453.421 694.008 474.931 770.187 443.401C848.233 411.089 792.717 360.3 741.931 328.264C679.319 288.783 602.02 250.358 584.718 203.844C566.42 154.802 614.592 98.5432 549.491 52.7645C503.56 20.4527 403.233 1.14843 304.399 1.14843C205.565 1.14843 110.217 18.7062 40.6351 44.5831C-28.9468 70.506 -74.5049 104.197 -102.636 139.174C-159.646 210.186 -115.457 275.959 60.4267 315.717C93.5372 323.209 128.39 329.643 163.368 335.94Z" stroke="#6A5A59" stroke-width="0.5"/>
</g>
</svg>
