<svg width="1685" height="1463" viewBox="0 0 1685 1463" fill="none" xmlns="http://www.w3.org/2000/svg">
<g opacity="0.11">
<path d="M1021.28 752.014C1003.58 734.506 995.85 716.45 1008.06 694.908C1049.43 622.254 1151.13 576.591 1148.92 486.418C1147.72 440.107 1113.9 392.189 1060.96 349.498C810.46 147.987 538.997 149.704 452.847 173.192C364.556 197.242 392.518 288.41 425.052 350.694C465.096 427.44 519.108 507.08 513.371 580.491C507.298 658 515.129 839.328 554.504 926.089C582.285 987.302 661.921 1081.76 754.326 1111.44C846.732 1141.11 949.123 1107.95 1026.37 1090.81C1103.62 1073.67 1372.35 1294.11 1415.17 1251.14C1472.74 1193.35 1388.61 1087.21 1327.09 1017.55C1264.69 946.927 1189.76 879.325 1106.54 815.543C1075.68 791.992 1041.8 772.358 1021.28 752.014Z" stroke="#6A5A59"/>
<path d="M443.137 158.246C349.055 183.848 378.983 281.103 413.545 347.449C456.096 429.206 513.892 514.153 507.588 592.384C501.059 674.976 494.353 846.633 536.392 939.138C565.99 1004.46 651.752 1098.16 750.377 1129.83C838.517 1158.14 935.27 1130.32 1010.54 1116.3C1088.09 1101.88 1332.93 1294.18 1379.6 1255.06C1444.06 1200.84 1382.85 1101.5 1336.65 1032.33C1290.34 962.888 1227.82 895.069 1153.97 830.202C1126.6 806.178 1095.95 785.649 1076.47 764.503C1059.71 746.501 1051.51 728.069 1059.87 706.313C1072.55 673.553 1092.58 644.747 1110.35 615.668C1125.56 590.883 1138.93 565.735 1143.65 537.011C1145.96 523.09 1145.5 508.05 1142.39 491.478C1133.73 446.41 1097.53 399.205 1042.72 355.004C961.236 289.503 878.284 241.379 798.89 207.811C650.146 144.811 509.741 140.076 443.137 158.246Z" stroke="#6A5A59"/>
<path d="M433.251 143.248C333.378 170.4 365.094 273.686 401.862 344.151C447.098 430.976 508.323 521.117 501.806 604.281C494.822 691.956 473.545 854.045 518.07 952.237C549.519 1021.56 641.551 1114.66 746.04 1148.22C830.093 1175.21 921.24 1152.65 994.318 1141.78C1072.36 1130.13 1293.44 1294.45 1343.47 1258.91C1414.99 1208.33 1376.3 1115.77 1345.61 1047.14C1315 978.878 1265.47 910.909 1200.99 844.957C1177.24 820.621 1149.82 799.196 1131.24 777.088C1115.45 758.49 1106.64 739.52 1111.12 717.654C1118.02 683.949 1128.63 653.366 1136.51 622.705C1143.26 596.795 1148.22 570.99 1146.15 542.021C1145.08 528.264 1141.3 513.181 1135.26 496.578C1119.65 453.027 1080.38 406.202 1024.07 360.606C945.011 296.682 865.028 245.419 786.545 206.574C650.267 138.938 509.084 122.586 433.251 143.248Z" stroke="#6A5A59"/>
<path d="M423.364 128.252C317.668 157.057 351.205 266.271 389.968 340.9C437.888 432.793 502.687 528.288 495.636 616.169C488.373 708.983 452.381 861.346 499.393 965.224C532.693 1038.55 630.817 1131 741.525 1166.55C821.313 1192.17 907.177 1175.07 978.097 1167.27C1056.58 1158.48 1253.98 1294.63 1307.51 1262.83C1386.28 1215.94 1369.91 1130.2 1354.79 1061.91C1340.05 994.88 1303.33 926.705 1248.24 859.566C1227.95 834.86 1203.93 812.596 1186.21 789.628C1171.4 770.435 1161.95 751.031 1162.72 729.11C1163.85 694.461 1165.03 662.1 1163.06 629.755C1161.32 602.823 1158.07 576.316 1149.05 547.044C1144.8 533.404 1137.64 518.484 1128.73 501.644C1106.34 459.667 1064.02 413.223 1006.01 366.175C929.142 303.977 852.238 249.838 774.621 205.246C650.09 133.993 508.428 105.097 423.364 128.252Z" stroke="#6A5A59"/>
<path d="M413.48 113.26C301.992 143.616 337.317 258.861 378.286 337.608C428.681 434.616 497.119 535.258 489.856 628.072C482.137 725.969 431.575 868.765 481.284 978.284C516.401 1055.72 620.828 1147.46 737.545 1185.05C813.069 1209.31 893.793 1197.83 962.266 1192.77C1041.35 1187.02 1215.02 1295.08 1271.98 1266.65C1358.35 1223.57 1363.72 1144.58 1364.35 1076.69C1365.06 1010.99 1341.36 942.563 1295.64 874.339C1278.98 849.321 1258.19 826.161 1241.34 802.334C1227.47 782.647 1217.4 762.705 1214.32 740.571C1209.35 704.76 1201.57 671 1189.58 636.912C1179.74 608.969 1167.93 581.646 1151.7 552.221C1144.28 538.698 1133.76 523.839 1121.75 506.909C1092.97 466.519 1047.02 420.386 987.494 371.943C912.853 311.369 838.864 254.87 762.212 204.222C649.539 129.615 507.984 87.5666 413.48 113.26Z" stroke="#6A5A59"/>
<path d="M403.593 98.2615C286.315 130.169 323.428 251.443 366.602 334.31C419.682 436.385 491.727 542.278 483.93 639.809C475.754 742.789 410.478 875.857 462.818 991.223C499.785 1072.66 610.304 1163.74 733.241 1203.34C804.5 1226.22 880.085 1220.37 946.077 1218.15C1025.93 1215.48 1175.92 1295.37 1235.88 1270.4C1329.99 1231.29 1356.61 1158.78 1373.35 1091.4C1389.34 1026.97 1378.83 958.345 1342.54 888.831C1329.3 863.546 1311.94 839.445 1296.17 814.712C1283.24 794.533 1272.39 773.996 1265.78 751.865C1254.68 714.995 1238.22 679.584 1215.96 643.903C1197.98 615.052 1177.96 587.027 1154.42 557.185C1144 543.836 1130.34 528.992 1115.05 511.916C1080.26 473.122 1030.44 427.451 969.08 377.396C896.662 318.445 824.921 259.826 749.754 202.721C648.254 125.678 507.326 70.0757 403.593 98.2615Z" stroke="#6A5A59"/>
<path d="M393.852 83.4255C270.783 116.883 309.717 244.086 354.919 331.014C410.684 438.158 486.158 549.244 478.149 651.708C469.695 759.828 389.703 883.168 444.53 1004.22C483.348 1089.67 600.104 1180.25 728.938 1221.62C796.109 1243.19 866.345 1243.01 929.89 1243.53C1010.48 1244.06 1136.96 1295.82 1199.96 1274.22C1301.96 1239.22 1349.71 1172.94 1382.56 1106.07C1413.68 1042.74 1416.55 973.982 1389.8 903.439C1380 877.785 1365.88 852.788 1351.15 827.253C1339.2 806.478 1327.52 785.45 1317.38 763.322C1299.98 725.336 1275.15 688.49 1242.51 650.953C1216.42 621.091 1188.06 592.203 1157.31 562.208C1143.72 548.977 1126.92 534.147 1108.31 517.029C1067.77 479.682 1013.68 434.462 950.844 382.908C880.649 325.581 810.525 264.98 737.621 201.44C646.16 121.823 506.67 52.5872 393.852 83.4255Z" stroke="#6A5A59"/>
<path d="M383.967 68.4274C255.074 103.539 295.973 236.829 343.382 327.876C401.832 440.088 480.913 556.425 472.335 663.709C463.425 776.911 368.864 890.684 426.355 1017.48C466.812 1106.98 589.871 1196.85 724.925 1240.23C787.831 1260.43 853.007 1266.24 914.17 1269.28C995.613 1273.27 1098.44 1296.74 1164.51 1278.4C1274.33 1247.74 1343.11 1187.41 1392.02 1121.16C1438.09 1058.88 1454.31 990.085 1437.14 918.412C1430.79 892.389 1419.9 866.496 1406.2 840.159C1395.02 818.833 1382.55 797.211 1368.91 774.983C1345.14 736.087 1311.91 697.337 1268.96 658.311C1234.98 627.391 1198.24 597.745 1160.08 567.642C1143.49 554.585 1123.58 539.666 1101.47 522.448C1055.21 486.446 996.824 441.779 932.476 388.831C864.57 332.92 795.253 270.419 725.421 200.363C643.467 118.001 506.015 35.0966 383.967 68.4274Z" stroke="#6A5A59"/>
<path d="M1163.01 572.559C1063.65 506.548 878.403 390.562 713.253 199.182C639.851 113.997 505.536 17.6626 374.08 53.4287C239.396 90.0907 282.084 229.411 331.52 324.52C392.478 441.743 475.165 563.331 466.375 675.548C457.187 793.89 347.911 897.936 407.888 1030.42C450.196 1123.92 579.525 1213.2 720.62 1258.51C861.716 1303.82 1010.48 1308.17 1128.44 1282.05C1246.44 1255.83 1335.74 1201.19 1401.08 1135.66C1533.6 1002.59 1517.87 834.868 1295.4 665.095C1253.53 633.118 1208.41 602.713 1163.01 572.559Z" stroke="#6A5A59"/>
</g>
</svg>
