<svg width="297" height="184" viewBox="0 0 297 184" fill="none" xmlns="http://www.w3.org/2000/svg">
<g opacity="0.3">
<path d="M198.828 114.309C193.88 111.784 191.011 108.457 192.133 103.016C195.959 84.6563 214.42 67.9233 207.809 48.8103C204.399 38.9988 193.963 31.0816 179.826 25.5929C112.966 -0.271592 55.5036 18.72 38.8303 29.6487C21.7412 40.8445 33.8823 58.4032 45.0256 69.4776C58.7468 83.1263 75.628 96.435 79.4117 112.512C83.4033 129.488 97.4155 167.69 111.677 183.524C121.739 194.696 145.065 209.413 166.687 209.413C188.308 209.413 207.767 195.303 222.985 186.342C238.203 177.38 310.219 206.037 316.372 193.919C324.647 177.623 299.574 160.72 281.778 150.058C263.733 139.251 243.234 129.95 221.239 122.032C213.089 119.118 204.565 117.248 198.828 114.309Z" stroke="#6A5A59" stroke-width="0.5"/>
<path d="M35.7528 27.1238C17.541 39.0482 30.5138 57.7727 42.3639 69.5757C56.9582 84.1229 75.0037 98.3059 78.9953 115.452C83.2364 133.545 93.5065 170.678 108.724 187.557C119.452 199.481 144.025 213.616 167.102 213.616C187.725 213.616 206.353 201.035 221.363 192.875C236.83 184.472 301.861 208.758 309.095 197.198C319.074 181.194 299.324 164.169 284.813 152.561C270.26 140.903 252.381 130.703 232.298 121.912C224.856 118.658 216.956 116.375 211.384 113.193C206.602 110.497 203.609 107.122 203.9 101.9C204.357 94.0316 206.644 86.503 208.432 79.0715C209.97 72.7328 211.093 66.4428 210.136 59.9827C209.679 56.8498 208.556 53.6684 206.769 50.3412C201.862 41.3068 190.968 33.7053 176.332 28.0224C154.587 19.6195 133.714 15.0294 114.587 13.3051C78.7458 10.0508 48.6424 18.6723 35.7528 27.1238Z" stroke="#6A5A59" stroke-width="0.5"/>
<path d="M32.6343 24.5956C13.2999 37.2485 27.0627 57.1387 39.6612 69.6703C55.1703 85.1161 74.2968 100.173 78.5794 118.388C83.07 137.598 89.598 173.687 105.731 191.61C117.123 204.263 142.986 217.839 167.434 217.839C187.101 217.839 204.897 206.764 219.658 199.43C235.417 191.586 293.503 211.524 301.694 200.499C313.42 184.786 298.908 167.664 287.723 155.108C276.58 142.625 261.445 131.502 243.275 121.836C236.581 118.266 229.305 115.571 223.858 112.122C219.242 109.232 216.082 105.783 215.542 100.805C214.71 93.1305 214.876 85.869 214.461 78.7775C214.128 72.7789 213.421 66.926 211.01 60.8788C209.845 58.013 208.016 55.0501 205.604 51.9172C199.326 43.6843 187.808 36.3743 172.757 30.4971C151.634 22.2641 131.177 16.7998 111.884 13.8855C78.3715 8.78543 47.3118 14.9783 32.6343 24.5956Z" stroke="#6A5A59" stroke-width="0.5"/>
<path d="M29.5155 22.0733C9.0585 35.4792 23.6113 56.5108 36.9166 69.7952C53.3405 86.1396 73.5896 102.096 78.0802 121.354C82.8618 141.682 85.606 176.702 102.654 195.669C114.712 209.051 141.821 222.068 167.725 222.068C186.394 222.068 203.442 212.524 217.953 205.991C234.003 198.729 285.145 214.272 294.334 203.805C307.848 188.383 298.534 171.189 290.675 157.637C282.983 144.329 270.551 132.283 254.293 121.719C248.306 117.833 241.695 114.724 236.373 111.033C231.924 107.948 228.597 104.451 227.267 99.7155C225.146 92.2354 223.192 85.2411 220.573 78.4653C218.369 72.831 215.874 67.3909 211.966 61.7566C210.136 59.1337 207.6 56.4379 204.565 53.4508C196.955 46.0193 184.814 39.0006 169.305 32.9292C148.765 24.9148 128.765 18.6247 109.265 14.4233C77.997 7.74464 45.9809 11.2904 29.5155 22.0733Z" stroke="#6A5A59" stroke-width="0.5"/>
<path d="M26.3975 19.5512C4.81787 33.6856 20.1606 55.883 34.2145 69.896C51.5115 87.1633 72.8832 103.969 77.6649 124.296C82.696 145.741 81.6981 179.717 99.7019 199.704C112.425 213.839 140.824 226.273 168.141 226.297C185.813 226.297 202.153 218.307 216.332 212.527C232.714 205.873 276.913 217.044 287.058 207.063C302.443 191.933 298.202 174.69 293.711 160.142C289.387 146.057 279.699 133.064 265.354 121.625C260.115 117.424 254.128 113.902 248.93 109.968C244.647 106.713 241.155 103.143 238.993 98.6262C235.5 91.3161 231.55 84.6375 226.685 78.1775C222.694 72.8831 218.328 67.8559 212.881 62.683C210.386 60.303 207.143 57.8501 203.442 55.0572C194.586 48.4029 181.696 41.7 165.771 35.4342C145.813 27.6141 126.271 20.6198 106.562 15.0583C77.5817 6.84966 44.6924 7.57824 26.3975 19.5512Z" stroke="#6A5A59" stroke-width="0.5"/>
<path d="M23.2791 17.0194C0.576752 31.8824 16.7095 55.2454 31.5118 69.987C49.7235 88.1529 72.2179 105.833 77.2075 127.205C82.488 149.766 77.7064 182.674 96.6666 203.73C110.055 218.593 139.701 230.468 168.474 230.493C185.147 230.493 200.781 224.057 214.627 219.054C231.384 213.007 268.639 219.783 279.657 210.335C296.954 195.521 297.661 178.205 296.622 162.662C295.624 147.799 288.722 133.859 276.289 121.497C271.757 117.005 266.435 113.046 261.404 108.844C257.288 105.42 253.587 101.777 250.676 97.5029C245.812 90.3872 239.907 83.9514 232.756 77.8556C226.976 72.9256 220.822 68.3113 213.796 63.5512C210.677 61.414 206.769 59.1797 202.361 56.5812C192.341 50.6797 178.661 44.341 162.237 37.8567C142.861 30.2309 123.652 22.6294 103.818 15.5865C77.0411 6.0907 43.3619 3.88068 23.2791 17.0194Z" stroke="#6A5A59" stroke-width="0.5"/>
<path d="M20.2021 14.5219C-3.62289 30.1135 13.2999 54.618 28.809 70.0881C47.9355 89.1526 71.511 107.707 76.7915 130.147C82.3632 153.826 73.7978 185.665 93.6728 207.765C107.727 223.357 138.662 234.698 168.807 234.698C184.524 234.698 199.409 229.841 212.922 225.591C230.053 220.175 260.406 222.555 272.298 213.618C291.549 199.144 297.162 181.706 299.574 165.168C301.861 149.503 297.786 134.616 287.308 121.38C283.482 116.571 278.784 112.2 273.919 107.756C269.969 104.137 266.061 100.446 262.402 96.4141C256.123 89.4926 248.348 83.3239 238.868 77.5439C231.3 72.9539 223.317 68.7281 214.752 64.4295C210.968 62.5352 206.394 60.5195 201.28 58.1394C190.137 52.9423 175.584 46.9922 158.744 40.2893C139.951 32.8578 120.949 24.722 101.157 16.1491C76.3342 5.41469 42.0312 0.193213 20.2021 14.5219Z" stroke="#6A5A59" stroke-width="0.5"/>
<path d="M17.0836 11.9944C-7.86403 28.3388 9.89035 54.009 26.1479 70.2077C46.1891 90.1708 70.8872 109.6 76.3757 133.108C82.1968 157.904 69.8893 188.699 90.7206 211.843C105.398 228.188 137.622 238.946 169.222 238.946C183.941 238.946 198.162 235.716 211.342 232.171C228.889 227.435 252.298 225.395 265.063 216.943C286.268 202.858 296.746 185.25 302.609 167.74C308.139 151.274 306.892 135.464 298.368 121.33C295.249 116.205 291.175 111.421 286.476 106.734C282.651 102.945 278.534 99.1809 274.127 95.368C266.435 88.6893 256.747 82.6907 244.98 77.2992C235.666 73.0249 225.853 69.212 215.708 65.3991C211.301 63.7477 206.062 61.9262 200.199 59.7648C187.933 55.2476 172.507 49.7104 155.252 42.8132C137.04 35.5274 118.08 26.9302 98.4959 16.7544C75.5025 4.78143 40.7006 -3.50008 17.0836 11.9944Z" stroke="#6A5A59" stroke-width="0.5"/>
<path d="M216.664 66.2497C191.093 58.9639 143.9 46.8938 95.8348 17.3379C74.463 4.17487 39.4116 -7.19094 13.9651 9.46921C-12.1052 26.5422 6.43921 53.3782 23.4036 70.3055C44.318 91.1671 70.1387 111.47 75.9183 136.047C82.0304 161.961 65.9392 191.687 87.6852 215.875C103.028 232.948 136.541 243.148 169.555 243.148C202.569 243.148 234.419 233.871 257.662 220.198C280.904 206.501 296.122 188.699 305.519 170.218C324.563 132.696 309.802 97.9429 251.05 76.9355C239.99 72.9769 228.348 69.5769 216.664 66.2497Z" stroke="#6A5A59" stroke-width="0.5"/>
</g>
</svg>
