<svg width="322" height="94" viewBox="0 0 322 94" fill="none" xmlns="http://www.w3.org/2000/svg">
<g opacity="0.2">
<path d="M189.586 124.033C184.68 122.811 181.46 120.46 181.359 115.433C181.053 98.4616 194.077 79.9503 184.347 64.4359C179.338 56.4749 168.468 51.613 154.802 49.6454C90.1841 40.4219 42.9667 68.8527 30.3595 81.881C17.4369 95.2295 31.7664 108.249 43.9009 115.752C58.8451 125.001 76.528 133.309 83.1338 146.72C90.1057 160.882 110.263 191.729 126.129 202.796C137.322 210.605 161.015 218.845 180.223 214.45C199.432 210.055 213.872 193.655 225.583 182.657C237.294 171.66 307.056 182.299 310.077 170.359C314.14 154.304 288.455 144.491 270.493 138.704C252.281 132.84 232.193 128.802 211.054 126.29C203.226 125.376 195.276 125.459 189.586 124.033Z" stroke="#FFF3F2" stroke-width="0.5"/>
<path d="M27.1165 80.2817C13.3435 94.501 28.6471 108.38 41.5566 116.382C57.4578 126.246 76.3515 135.088 83.3576 149.4C90.7766 164.496 107.394 195.161 124.32 206.955C136.256 215.293 160.94 222.765 181.441 218.074C199.763 213.883 213.773 199 225.461 188.752C237.507 178.197 300.18 186.4 304.275 174.733C309.911 158.588 288.929 147.586 273.695 140.297C258.414 132.973 240.471 127.61 220.856 123.938C213.587 122.58 206.108 122.172 200.516 120.499C195.724 119.093 192.383 116.724 191.588 112.059C190.406 105.026 190.919 97.9207 191.008 91.0025C191.095 85.099 190.823 79.3228 188.67 73.8193C187.631 71.149 185.992 68.571 183.732 65.9998C177.55 59.0285 166.338 54.538 152.189 52.5004C131.174 49.5089 111.704 49.7029 94.3645 52.0696C61.8662 56.4842 36.8622 70.2074 27.1165 80.2817Z" stroke="#FFF3F2" stroke-width="0.5"/>
<path d="M23.8363 78.6859C9.21294 93.776 25.4536 108.522 39.175 117.015C56.0702 127.486 76.1007 136.879 83.5811 152.074C91.4471 168.105 104.529 198.61 122.478 211.139C135.153 219.984 160.869 226.701 182.589 221.732C200.061 217.735 213.636 204.35 225.27 194.88C237.687 184.758 293.314 190.538 298.366 179.148C305.612 162.906 289.265 150.754 276.795 141.953C264.376 133.207 248.686 126.473 230.593 121.64C223.925 119.852 216.917 118.954 211.382 117.019C206.698 115.408 203.195 113.008 201.71 108.727C199.423 102.127 198.105 95.6885 196.305 89.5181C194.799 84.2948 192.99 79.2761 189.627 74.4325C188.014 72.1415 185.791 69.9 183.016 67.6269C175.777 61.6414 164.07 57.5347 149.512 55.4103C129.085 52.4419 109.809 51.7802 92.0809 53.1311C61.2788 55.4445 34.935 67.2199 23.8363 78.6859Z" stroke="#FFF3F2" stroke-width="0.5"/>
<path d="M20.5558 77.0866C5.0871 93.0689 22.2599 108.661 36.7612 117.674C54.6504 128.752 75.8596 138.71 83.7354 154.784C92.0855 171.741 101.59 202.072 120.563 215.337C133.976 224.689 160.687 230.66 183.7 225.395C200.286 221.6 213.505 209.717 225.078 201.005C237.871 191.338 286.443 194.652 292.494 183.552C301.387 167.203 289.643 153.93 279.927 143.575C270.407 133.4 256.932 125.302 240.357 119.288C234.253 117.078 227.753 115.68 222.28 113.506C217.705 111.69 214.044 109.281 211.906 105.374C208.513 99.2079 205.365 93.4359 201.671 87.9919C198.576 83.4702 195.262 79.179 190.653 75.0038C188.498 73.0622 185.701 71.2001 182.401 69.1823C174.142 64.1741 161.939 60.4512 146.936 58.2484C127.071 55.3545 108.034 53.8715 89.8612 54.1294C60.7353 54.5941 33.0077 64.229 20.5558 77.0866Z" stroke="#FFF3F2" stroke-width="0.5"/>
<path d="M17.2762 75.4935C0.957168 92.3467 19.0671 108.807 34.3803 118.31C53.2315 130.024 75.6096 140.504 83.9596 157.461C92.7567 175.353 98.7265 205.523 118.754 219.493C132.91 229.374 160.649 234.569 184.923 229.038C200.622 225.447 213.526 215.078 224.956 207.098C238.167 197.899 279.688 198.768 286.687 187.902C297.301 171.43 290.054 157.083 283.129 145.165C276.445 133.62 265.216 124.129 250.164 116.956C244.661 114.315 238.631 112.426 233.22 110.012C228.759 108.012 224.935 105.573 222.103 102.028C217.525 96.2904 212.668 91.2026 207.043 86.4934C202.428 82.635 197.535 79.0883 191.652 75.6328C188.955 74.0406 185.579 72.5363 181.728 70.8251C172.517 66.7559 159.713 63.4637 144.301 61.174C124.992 58.3331 106.22 56.136 87.5881 55.2366C60.1851 53.8869 31.1133 61.2145 17.2762 75.4935Z" stroke="#FFF3F2" stroke-width="0.5"/>
<path d="M13.9965 73.9033C-3.17289 91.6273 15.8741 108.955 31.9993 118.949C51.8444 131.27 75.3963 142.292 84.1418 160.128C93.3859 178.955 95.7786 208.952 116.872 223.67C131.766 234.058 160.5 238.507 186.066 232.68C200.879 229.291 213.469 220.437 224.76 213.21C238.427 204.47 272.891 202.874 280.774 192.302C293.151 175.72 290.285 160.303 286.225 146.805C282.339 133.898 273.394 123.006 259.854 114.629C254.921 111.588 249.394 109.178 244.077 106.495C239.729 104.311 235.706 101.85 232.258 98.6717C226.5 93.3842 219.956 88.9078 212.372 84.9848C206.243 81.8111 199.845 78.9919 192.641 76.2217C189.44 74.9705 185.517 73.7943 181.077 72.3981C170.983 69.2296 157.551 66.4192 141.652 64.0381C122.899 61.2503 104.3 58.4501 85.2584 56.2693C59.5534 53.3364 29.1867 58.2327 13.9965 73.9033Z" stroke="#FFF3F2" stroke-width="0.5"/>
<path d="M10.7576 72.3214C-7.26215 90.9161 12.717 109.09 29.6172 119.583C50.4563 132.51 75.1451 144.084 84.3647 162.804C94.0929 182.556 92.9085 212.38 115.025 227.833C130.657 238.729 160.428 242.445 187.209 236.317C201.172 233.123 213.416 225.813 224.564 219.318C238.69 211.059 266.136 206.989 274.897 196.689C289.078 180.009 290.546 163.488 289.351 148.41C288.222 134.129 281.598 121.826 269.618 112.282C265.249 108.818 260.193 105.917 254.974 102.986C250.735 100.597 246.518 98.1356 242.453 95.3235C235.479 90.4947 227.327 86.6342 217.738 83.463C210.089 80.9526 202.144 78.848 193.667 76.7975C189.923 75.8957 185.453 75.0474 180.429 73.9877C169.481 71.6686 155.351 69.3785 139.038 66.8891C120.842 64.1543 102.319 60.8406 83.0063 57.3019C58.7875 52.8793 27.2591 55.2462 10.7576 72.3214Z" stroke="#FFF3F2" stroke-width="0.5"/>
<path d="M7.47741 70.724C-11.3878 90.2109 9.56545 109.244 27.2775 120.227C49.1107 133.762 74.9732 145.878 84.5932 165.498C94.7684 186.185 90.0488 215.849 113.226 232.028C129.564 243.461 160.362 246.401 188.436 239.978C201.513 236.986 213.494 231.247 224.488 225.44C239.121 217.697 259.506 211.14 269.141 201.091C285.137 184.356 290.893 166.696 292.567 150.06C294.158 134.413 289.859 120.722 279.434 109.987C275.63 106.101 271.044 102.71 265.924 99.5305C261.761 96.9664 257.345 94.4828 252.66 92.0156C244.478 87.6884 234.661 84.3666 223.119 82.0029C213.982 80.1259 204.495 78.7574 194.712 77.4564C190.464 76.8957 185.442 76.354 179.797 75.6391C167.989 74.148 153.167 72.3995 136.445 69.8233C118.796 67.0987 100.216 63.3695 80.7647 58.3748C57.9213 52.4879 25.3321 52.2572 7.47741 70.724Z" stroke="#FFF3F2" stroke-width="0.5"/>
<path d="M195.734 78.0153C171.546 76.7866 127.184 75.7327 78.5182 59.4333C56.8753 52.1672 23.442 49.2667 4.19729 69.1336C-15.5182 89.4914 6.37208 109.392 24.8591 120.874C47.6493 135.024 74.6856 147.683 84.7798 168.186C95.4391 189.8 87.1423 219.29 111.343 236.205C128.419 248.145 160.25 250.33 189.579 243.62C218.909 236.909 245.332 222.253 263.222 205.469C281.107 188.663 291.034 169.869 295.653 151.657C304.999 114.691 284.873 87.0385 228.439 80.4512C217.814 79.2077 206.785 78.5751 195.734 78.0153Z" stroke="#FFF3F2" stroke-width="0.5"/>
</g>
</svg>
