<svg width="44" height="44" viewBox="0 0 44 44" fill="none" xmlns="http://www.w3.org/2000/svg">
<rect x="0.75" y="0.75" width="42.5" height="42.5" rx="7.25" stroke="#453130" stroke-width="1.5"/>
<path d="M14.318 29.682C13 28.364 13 26.2426 13 22C13 17.7574 13 15.636 14.318 14.318C15.636 13 17.7574 13 22 13C26.2426 13 28.364 13 29.682 14.318C31 15.636 31 17.7574 31 22C31 26.2426 31 28.364 29.682 29.682C28.364 31 26.2426 31 22 31C17.7574 31 15.636 31 14.318 29.682Z" stroke="#453130" stroke-width="1.5" stroke-linecap="round" stroke-linejoin="round"/>
<path d="M16 22H18.5L20.5 18L23.5 26L25.5 22H28" stroke="#453130" stroke-width="1.5" stroke-linecap="round" stroke-linejoin="round"/>
</svg>
