<svg width="44" height="44" viewBox="0 0 44 44" fill="none" xmlns="http://www.w3.org/2000/svg">
<rect x="0.75" y="0.75" width="42.5" height="42.5" rx="7.25" stroke="#453130" stroke-width="1.5"/>
<path d="M21.8013 16.4895L23.2869 15.0039C24.9596 13.3312 27.1495 12.6374 29.4671 12.524C30.3686 12.4799 30.8193 12.4578 31.1807 12.8193C31.5422 13.1807 31.5201 13.6314 31.476 14.5329C31.3626 16.8505 30.6688 19.0404 28.9961 20.7131L27.5105 22.1987C26.2871 23.4221 25.9393 23.77 26.1961 25.097C26.4496 26.1107 26.6949 27.0923 25.9578 27.8294C25.0637 28.7235 24.2481 28.7235 23.354 27.8294L16.1706 20.646C15.2765 19.7519 15.2765 18.9363 16.1706 18.0422C16.9077 17.3051 17.8893 17.5504 18.903 17.8039C20.23 18.0607 20.5779 17.7129 21.8013 16.4895Z" stroke="#453130" stroke-width="1.5" stroke-linejoin="round"/>
<path d="M26.9958 17H27.0049" stroke="#453130" stroke-width="2" stroke-linecap="round" stroke-linejoin="round"/>
<path d="M12.5 31.5L17.5 26.5" stroke="#453130" stroke-width="1.5" stroke-linecap="round"/>
<path d="M18.5 31.5L20.5 29.5" stroke="#453130" stroke-width="1.5" stroke-linecap="round"/>
<path d="M12.5 25.5L14.5 23.5" stroke="#453130" stroke-width="1.5" stroke-linecap="round"/>
</svg>
