<svg width="44" height="44" viewBox="0 0 44 44" fill="none" xmlns="http://www.w3.org/2000/svg">
<rect x="0.75" y="0.75" width="42.5" height="42.5" rx="7.25" stroke="white" stroke-width="1.5"/>
<path d="M21.0809 23.152L18 17L23.4196 21.2796C24.1901 21.888 24.1941 23.0472 23.4277 23.6607C22.6614 24.2743 21.5189 24.0266 21.0809 23.152Z" stroke="white" stroke-width="1.5" stroke-linecap="round" stroke-linejoin="round"/>
<path d="M15 14.8199C13.1486 16.6389 12 19.1737 12 21.9775C12 27.5128 16.4771 32 22 32C27.5228 32 32 27.5128 32 21.9775C32 17.1241 28.5581 13.0764 23.9872 12.1527C23.1512 11.9838 22.7332 11.8993 22.3666 12.2001C22 12.5008 22 12.987 22 13.9593V14.9616" stroke="white" stroke-width="1.5" stroke-linecap="round" stroke-linejoin="round"/>
</svg>
